<svg width="26" height="26" viewBox="0 0 26 26" fill="none" xmlns="http://www.w3.org/2000/svg">
<path d="M13 0.5C19.9034 0.5 25.4998 6.09642 25.5 13C25.5 19.9038 19.9036 25.501 13 25.501C6.09643 25.501 0.5 19.9038 0.5 13C0.500209 6.09642 6.09655 0.5 13 0.5Z" fill="#0064FF" stroke="#F2C564"/>
<path d="M17.3924 13.4202C17.2682 12.999 17.0901 12.5957 16.8624 12.2202C16.7784 12.0862 16.6694 11.9352 16.5714 11.7762C15.4474 10.1021 13.2294 7.20201 13.0264 7.011C13.0192 7.00521 13.0106 7.00142 13.0014 7C12.9916 7.00112 12.9822 7.00493 12.9744 7.011C12.7744 7.19801 10.5544 10.1111 9.42942 11.7742C9.32942 11.9332 9.22342 12.0842 9.13842 12.2182C8.91147 12.5939 8.73369 12.9972 8.60942 13.4182C8.47153 14.0691 8.46507 14.7409 8.59042 15.3943C8.80324 16.0072 9.20523 16.5367 9.73842 16.9063L10.5324 17.5373C10.5324 17.5373 12.7524 19.1374 12.9584 19.2374C12.9716 19.2458 12.9868 19.2506 13.0024 19.2514C13.0174 19.2506 13.0319 19.2457 13.0444 19.2374C13.2514 19.1374 15.4694 17.5373 15.4694 17.5373L16.2634 16.9063C16.7945 16.5369 17.1947 16.0086 17.4064 15.3973C17.5324 14.744 17.5263 14.0721 17.3884 13.4212L17.3924 13.4202ZM12.3064 17.5953C12.2904 17.6193 12.2544 17.6113 12.2294 17.6093C12.0994 17.5183 11.7784 17.2853 11.7784 17.2853C11.2254 16.8753 10.6684 16.4973 10.1384 16.0763C9.81351 15.7195 9.59598 15.2781 9.51088 14.8031C9.42579 14.3281 9.47658 13.8386 9.65742 13.3912C9.66642 13.3332 9.69342 13.2462 9.76942 13.2302C9.99842 13.5682 10.4844 14.2652 10.4844 14.2652C10.9574 14.9453 11.5324 15.5583 12.0754 16.1963C12.4484 16.5393 12.2974 17.1143 12.3074 17.5963L12.3064 17.5953ZM13.0074 15.8223C12.9896 15.8197 12.9733 15.8109 12.9614 15.7973C12.2614 14.9643 11.4614 14.0222 10.7614 13.1852C10.6139 12.9824 10.5209 12.7452 10.4914 12.4962C10.4585 12.2591 10.5137 12.0183 10.6464 11.8192C10.6464 11.8192 10.7634 11.6501 10.7964 11.6001C10.7964 11.6001 12.2314 9.58308 12.9864 8.62705C12.9892 8.62346 12.9927 8.62046 12.9966 8.61823C13.0006 8.61599 13.0049 8.61457 13.0094 8.61405C13.0204 8.61405 13.0294 8.62705 13.0294 8.62705C13.7844 9.58308 15.2194 11.6001 15.2194 11.6001L15.3704 11.8192C15.5028 12.0184 15.5573 12.2594 15.5234 12.4962C15.4941 12.7451 15.4015 12.9823 15.2544 13.1852C14.5544 14.0222 13.7544 14.9643 13.0544 15.7973C13.0436 15.81 13.0288 15.8188 13.0124 15.8223H13.0074ZM15.8704 16.0773C15.3404 16.4983 14.7824 16.8773 14.2294 17.2863C14.2294 17.2863 13.9084 17.5193 13.7784 17.6103C13.7524 17.6103 13.7164 17.6203 13.7014 17.5963C13.7114 17.1153 13.5604 16.5403 13.9334 16.1963C14.4764 15.5583 15.0504 14.9453 15.5234 14.2652C15.5234 14.2652 16.0094 13.5652 16.2394 13.2302C16.3144 13.2452 16.3394 13.3302 16.3514 13.3912C16.5325 13.8386 16.5834 14.3281 16.4983 14.8032C16.4132 15.2782 16.1955 15.7196 15.8704 16.0763" fill="white"/>
</svg>
