<svg width="26" height="26" viewBox="0 0 26 26" fill="none" xmlns="http://www.w3.org/2000/svg">
<path d="M13 0.5C19.9036 0.5 25.5 6.09644 25.5 13C25.5 19.9036 19.9036 25.5 13 25.5C6.09644 25.5 0.5 19.9036 0.5 13C0.5 6.09644 6.09644 0.5 13 0.5Z" fill="#6E605F" stroke="#F2C564"/>
<path d="M13.001 11.624C13.2747 14.077 14.2915 16.3879 15.915 18.2471C15.0234 18.7417 14.0206 19.001 13.001 19.001C11.9814 19.001 10.9785 18.7417 10.0869 18.2471C11.711 16.3883 12.7279 14.0772 13.001 11.624ZM15.9678 11.8418C16.1167 12.958 17.3483 14.4574 18.6279 15.0537L18.6406 15.0488C18.3756 15.7749 17.9757 16.4441 17.4619 17.0215C16.3236 16.3382 15.4177 15.3279 14.8623 14.1221C15.4586 13.4122 15.8398 12.5469 15.9619 11.6279L15.9678 11.8418ZM10.0342 11.627C10.1564 12.5459 10.5376 13.4112 11.1338 14.1211C10.5789 15.3273 9.67287 16.3377 8.53418 17.0205C8.0222 16.4429 7.62367 15.7741 7.35938 15.0488L7.37207 15.0537C8.65075 14.4574 9.88318 12.958 10.0322 11.8418L10.0342 11.627ZM10.0312 7.78516C10.0223 8.10908 10.009 8.39806 9.99805 8.49805C9.77504 10.692 9.02016 12.9073 7.03223 13.7363C7.01623 13.5453 7 13.199 7 12.999C6.99999 11.9398 7.28016 10.8992 7.8125 9.9834C8.34487 9.0676 9.11074 8.30933 10.0312 7.78516ZM15.9697 7.78516C16.89 8.30941 17.6553 9.06772 18.1875 9.9834C18.7197 10.8992 19.0001 11.9398 19 12.999C19 13.199 18.9858 13.5453 18.9678 13.7363C16.9808 12.9073 16.2249 10.691 16.0029 8.49707L15.9844 8.22559C15.9785 8.10037 15.9732 7.94713 15.9697 7.78516ZM12.9824 7.00195C12.9824 7.2417 12.9601 7.69102 12.9531 7.76074C12.7972 9.28737 12.4616 10.7897 11.9541 12.2363L11.7256 12.8535C10.7859 12.253 10.2862 9.90073 10.1162 8.50098C10.1012 8.37898 10.0735 8.0926 10.0645 7.7666C10.9565 7.26875 11.9608 7.0057 12.9824 7.00195ZM13.0166 7.00195C14.0377 7.00382 15.042 7.26493 15.9346 7.76074C15.9246 8.08674 15.8998 8.37312 15.8838 8.49512C15.7138 9.89494 15.2131 12.2473 14.2744 12.8477L14.0469 12.2363C13.539 10.7898 13.203 9.28743 13.0469 7.76074C13.0398 7.691 13.0166 7.2417 13.0166 7.00195Z" fill="#FDC600"/>
</svg>
