<svg width="26" height="26" viewBox="0 0 26 26" fill="none" xmlns="http://www.w3.org/2000/svg">
<path d="M13 0.5C19.9036 0.5 25.5 6.09644 25.5 13C25.5 19.9036 19.9036 25.5 13 25.5C6.09644 25.5 0.5 19.9036 0.5 13C0.5 6.09644 6.09644 0.5 13 0.5Z" fill="#2FB457" stroke="#F2C564"/>
<path d="M19.5018 13.0499C19.5007 14.3266 19.1209 15.5744 18.4107 16.6353C17.7004 17.6963 16.6916 18.5228 15.5116 19.0105C14.3316 19.4981 13.0336 19.6249 11.7816 19.3749C10.5295 19.1249 9.37975 18.5092 8.47759 17.6058C7.57542 16.7024 6.96137 15.5517 6.71309 14.2993C6.46481 13.047 6.59344 11.7491 7.08272 10.5698C7.57199 9.39055 8.39994 8.38282 9.46189 7.67405C10.5238 6.96528 11.7721 6.5873 13.0488 6.58789C13.8969 6.58829 14.7366 6.75576 15.5199 7.08076C16.3032 7.40576 17.0149 7.8819 17.6141 8.48199C18.2134 9.08208 18.6885 9.79436 19.0124 10.5781C19.3363 11.3619 19.5026 12.2018 19.5018 13.0499Z" fill="white"/>
<path d="M16.2999 16.3801C15.9697 16.1884 15.5956 16.0851 15.2139 16.0801C14.8351 16.097 14.4652 16.1996 14.1319 16.3801C13.7739 16.5745 13.3759 16.6836 12.9689 16.6991C12.5984 16.6823 12.2368 16.5796 11.9129 16.3991C11.5531 16.2037 11.153 16.0945 10.7439 16.0801C10.365 16.0984 9.99508 16.2009 9.66085 16.3801C9.30069 16.5735 8.90131 16.6825 8.49285 16.6991H8.42285C8.47085 16.7581 8.52285 16.8171 8.56985 16.8741C8.97735 16.8477 9.37468 16.7356 9.73585 16.5451C10.0478 16.3774 10.3931 16.2811 10.7469 16.2631C11.1289 16.2766 11.5026 16.3793 11.8379 16.5631C12.1852 16.7553 12.5723 16.8645 12.9689 16.8821C13.4022 16.8679 13.8261 16.7524 14.2069 16.5451C14.5166 16.3747 14.8608 16.2766 15.2139 16.2581C15.5691 16.2652 15.9162 16.3652 16.2209 16.5481C16.5855 16.7621 17 16.8766 17.4229 16.8801C17.4739 16.8191 17.5229 16.7591 17.5829 16.6981H17.4379C17.0386 16.6937 16.6477 16.5836 16.3049 16.3791" fill="#99877D"/>
<path d="M15.2141 16.4112C14.8349 16.4313 14.4651 16.5365 14.1321 16.7192C13.7744 16.9142 13.3763 17.0235 12.9691 17.0382C12.5986 17.0213 12.2371 16.9186 11.9131 16.7382C11.5537 16.5421 11.1533 16.4328 10.7441 16.4192C10.3653 16.4374 9.99532 16.5399 9.6611 16.7192C9.36097 16.8716 9.03755 16.973 8.7041 17.0192C8.7551 17.0722 8.8041 17.1262 8.8641 17.1792C9.16604 17.119 9.45839 17.0181 9.7331 16.8792C10.0447 16.7102 10.3901 16.6132 10.7441 16.5952C11.1277 16.61 11.5024 16.7149 11.8381 16.9012C12.1854 17.0934 12.5725 17.2026 12.9691 17.2202C13.4026 17.2039 13.8264 17.0872 14.2071 16.8792C14.5164 16.7074 14.8608 16.6086 15.2141 16.5902C15.5692 16.597 15.9164 16.6966 16.2211 16.8792C16.501 17.0402 16.8081 17.1483 17.1271 17.1982C17.1811 17.1452 17.2351 17.0912 17.2871 17.0382C16.9389 17.0061 16.6021 16.8971 16.3011 16.7192C15.9721 16.5234 15.5978 16.4169 15.2151 16.4102" fill="#99877D"/>
<path d="M15.2144 16.7442C14.8356 16.7612 14.4657 16.8637 14.1324 17.0442C13.7744 17.2386 13.3764 17.3478 12.9694 17.3632C12.5989 17.3464 12.2373 17.2437 11.9134 17.0632C11.5536 16.8679 11.1535 16.7587 10.7444 16.7442C10.3654 16.7619 9.99533 16.8644 9.66135 17.0442C9.44409 17.1485 9.21784 17.2328 8.98535 17.2962L9.14535 17.4382C9.34766 17.3731 9.54542 17.2946 9.73735 17.2032C10.0493 17.0356 10.3946 16.9393 10.7484 16.9212C11.1313 16.935 11.5059 17.0378 11.8424 17.2212C12.1897 17.4135 12.5768 17.5227 12.9734 17.5402C13.4064 17.5259 13.8302 17.4112 14.2113 17.2052C14.5206 17.0335 14.8651 16.9347 15.2183 16.9162C15.5738 16.924 15.9209 17.0247 16.2253 17.2082C16.4193 17.3135 16.6233 17.3989 16.8344 17.4632C16.8884 17.4172 16.9424 17.3632 16.9944 17.3192C16.7538 17.2599 16.5222 17.1691 16.3054 17.0492C15.976 16.8544 15.6019 16.748 15.2194 16.7402" fill="#99877D"/>
<path d="M15.2136 17.0773C14.8349 17.0942 14.465 17.1968 14.1316 17.3773C13.7736 17.5716 13.3756 17.6808 12.9686 17.6963C12.598 17.6802 12.2363 17.5775 11.9126 17.3963C11.5529 17.2009 11.1527 17.0917 10.7436 17.0773C10.3648 17.0955 9.99482 17.198 9.6606 17.3773C9.53203 17.4372 9.40053 17.4906 9.2666 17.5373C9.3196 17.5803 9.3716 17.6233 9.4266 17.6653C9.53327 17.6226 9.63527 17.5779 9.7326 17.5313C10.0446 17.3636 10.3899 17.2673 10.7436 17.2493C11.1272 17.2641 11.5019 17.369 11.8376 17.5553C12.1849 17.7475 12.572 17.8567 12.9686 17.8743C13.4016 17.8599 13.8254 17.7452 14.2066 17.5393C14.5159 17.3675 14.8603 17.2687 15.2136 17.2503C15.5688 17.2574 15.916 17.3574 16.2206 17.5403L16.5396 17.7003C16.5936 17.6593 16.6476 17.6173 16.6996 17.5743C16.5632 17.5202 16.4297 17.4591 16.2996 17.3913C15.9716 17.192 15.5972 17.0821 15.2136 17.0723" fill="#99877D"/>
<path d="M15.2139 17.4121C14.8353 17.4297 14.4655 17.5323 14.1319 17.7121C13.7742 17.9072 13.376 18.0164 12.9689 18.0311C12.5984 18.0143 12.2369 17.9116 11.9129 17.7311C11.5534 17.535 11.1531 17.4258 10.7439 17.4121C10.365 17.4304 9.99507 17.5329 9.66085 17.7121L9.54785 17.7611C9.60385 17.8021 9.65985 17.8411 9.71685 17.8811H9.73285C10.0447 17.7128 10.39 17.6158 10.7439 17.5971C11.1275 17.612 11.5022 17.7168 11.8379 17.9031C12.1852 18.0954 12.5723 18.2046 12.9689 18.2221C13.4019 18.2077 13.8257 18.0931 14.2069 17.8871C14.5161 17.7154 14.8606 17.6165 15.2139 17.5981C15.569 17.606 15.9159 17.7059 16.2209 17.8881L16.2589 17.9091C16.3149 17.8711 16.3709 17.8341 16.4189 17.7941L16.2949 17.7321C15.9659 17.5364 15.5916 17.4299 15.2089 17.4231" fill="#99877D"/>
<path d="M14.1347 18.0502C13.7767 18.2446 13.3787 18.3538 12.9717 18.3692C12.6012 18.3524 12.2397 18.2497 11.9157 18.0692C11.5559 17.8739 11.1558 17.7647 10.7467 17.7502C10.4348 17.7586 10.1281 17.8326 9.84668 17.9672C9.90768 18.0072 9.97068 18.0442 10.0337 18.0802C10.2587 17.9811 10.5009 17.9268 10.7467 17.9202C11.1302 17.9359 11.5047 18.0407 11.8407 18.2262C12.188 18.4185 12.5751 18.5277 12.9717 18.5452C13.4047 18.5309 13.8285 18.4162 14.2097 18.2102C14.5185 18.0392 14.8622 17.9407 15.2147 17.9222C15.4717 17.9204 15.7261 17.975 15.9597 18.0822C16.0207 18.0452 16.0807 18.0092 16.1397 17.9702C15.8543 17.8203 15.537 17.7414 15.2147 17.7402C14.836 17.7572 14.466 17.8598 14.1327 18.0402" fill="#99877D"/>
<path d="M13 6C11.6155 6 10.2622 6.41054 9.11101 7.17971C7.95987 7.94888 7.06266 9.04213 6.53285 10.3212C6.00303 11.6003 5.86441 13.0078 6.13451 14.3656C6.4046 15.7235 7.07129 16.9708 8.05026 17.9497C9.02922 18.9287 10.2765 19.5954 11.6344 19.8655C12.9922 20.1356 14.3997 19.997 15.6788 19.4672C16.9579 18.9373 18.0511 18.0401 18.8203 16.889C19.5895 15.7378 20 14.3845 20 13C20 11.1435 19.2625 9.36301 17.9497 8.05025C16.637 6.7375 14.8565 6 13 6ZM13 18.883C11.8365 18.883 10.699 18.538 9.73158 17.8915C8.76413 17.2451 8.01009 16.3263 7.56482 15.2513C7.11955 14.1763 7.00305 12.9935 7.23004 11.8523C7.45704 10.7111 8.01734 9.66284 8.84009 8.84009C9.66285 8.01734 10.7111 7.45704 11.8523 7.23004C12.9935 7.00304 14.1764 7.11955 15.2513 7.56482C16.3263 8.01009 17.2451 8.76413 17.8915 9.73158C18.538 10.699 18.883 11.8365 18.883 13C18.883 14.5603 18.2632 16.0566 17.1599 17.1599C16.0566 18.2632 14.5603 18.883 13 18.883Z" fill="#ED1B2E"/>
<path d="M16.2738 11.2643C16.2034 11.4817 16.068 11.6722 15.8858 11.8103C15.6118 12.0303 13.8008 13.1373 13.5968 13.3933C13.4206 13.6664 13.3372 13.989 13.3588 14.3133V16.4413H13.6398V15.8873C13.6605 15.6171 13.7776 15.3633 13.9698 15.1723C14.5437 14.7024 15.1472 14.2702 15.7768 13.8783C15.9595 13.7347 16.1016 13.5461 16.1892 13.3309C16.2769 13.1158 16.3071 12.8816 16.2768 12.6513V11.1973L16.2738 11.2643Z" fill="#2FB457"/>
<path d="M13.3584 13.2609C13.5584 13.0109 15.4324 11.8699 15.6954 11.6529C15.8566 11.5421 15.9919 11.3977 16.0922 11.2298C16.1925 11.0619 16.2553 10.8743 16.2764 10.6799V8.29688C16.2401 8.63972 16.0881 8.95998 15.8454 9.20488C15.1671 9.75149 14.4476 10.245 13.6934 10.6809C13.4413 10.8209 13.231 11.0255 13.0841 11.2736C12.9372 11.5217 12.859 11.8045 12.8574 12.0929V16.4419H13.1364V14.1659C13.1098 13.8481 13.1878 13.5303 13.3584 13.2609Z" fill="#2FB457"/>
<path d="M11.9407 10.7984C11.2913 10.3121 10.6684 9.79136 10.0747 9.23841C9.8344 8.98566 9.68157 8.66249 9.63867 8.31641V10.5304C9.64858 10.7849 9.71687 11.0336 9.83825 11.2575C9.95962 11.4813 10.1308 11.6743 10.3387 11.8214C10.8907 12.2214 11.6677 12.8104 11.9017 13.0454C12.2125 13.3893 12.3747 13.8423 12.3527 14.3054V16.4414H12.6347V12.1864C12.6688 11.9124 12.6211 11.6344 12.4976 11.3875C12.3741 11.1405 12.1803 10.9355 11.9407 10.7984Z" fill="#2FB457"/>
</svg>
