<svg width="26" height="26" viewBox="0 0 26 26" fill="none" xmlns="http://www.w3.org/2000/svg">
<path d="M13 0.5C19.9036 0.5 25.5 6.09644 25.5 13C25.5 19.9036 19.9036 25.5 13 25.5C6.09644 25.5 0.5 19.9036 0.5 13C0.5 6.09644 6.09644 0.5 13 0.5Z" fill="#6D1F80" stroke="#F2C564"/>
<path d="M13 7L8.644 10.946L7 17.381L10.111 18.847H12.587V16.272C12.587 16.272 8.238 18.567 9.372 13.426C10.021 11.5069 11.2977 9.86244 12.996 8.758C14.6953 9.86052 15.9735 11.5036 16.624 13.422C17.76 18.563 13.411 16.268 13.411 16.268V18.843H15.887L18.998 17.377L17.354 10.942L13 7Z" fill="#F9B200"/>
</svg>
