<svg width="16" height="16" viewBox="0 0 16 16" fill="none" xmlns="http://www.w3.org/2000/svg">
<path d="M8 0.832031C11.9578 0.832207 15.1658 4.04123 15.166 7.99902C15.1658 11.9568 11.9578 15.1649 8 15.165C4.04218 15.1649 0.833184 11.9568 0.833008 7.99902C0.833181 4.04121 4.04218 0.832163 8 0.832031ZM10.3535 5.64551C10.1582 5.45026 9.84174 5.45025 9.64648 5.64551L8 7.29199L6.35352 5.64551C6.15826 5.45025 5.84175 5.45026 5.64648 5.64551C5.45123 5.84076 5.45124 6.15727 5.64648 6.35254L7.29297 7.99902L5.64648 9.64551C5.4515 9.84072 5.45151 10.1573 5.64648 10.3525C5.84168 10.5477 6.15825 10.5476 6.35352 10.3525L8 8.70605L9.64648 10.3525C9.84175 10.5476 10.1583 10.5477 10.3535 10.3525C10.5485 10.1573 10.5485 9.84072 10.3535 9.64551L8.70703 7.99902L10.3535 6.35254C10.5488 6.15727 10.5488 5.84076 10.3535 5.64551Z" fill="#787878"/>
</svg>
