<svg width="25" height="24" viewBox="0 0 25 24" fill="none" xmlns="http://www.w3.org/2000/svg">
<path d="M16.5 20.5V14.5M18.375 14.5V13M18.375 22V20.5M16.5 17.5H20.25M20.25 17.5C20.8713 17.5 21.375 18.0037 21.375 18.625V19.375C21.375 19.9963 20.8713 20.5 20.25 20.5H15.375M20.25 17.5C20.8713 17.5 21.375 16.9963 21.375 16.375V15.625C21.375 15.0037 20.8713 14.5 20.25 14.5H15.375" stroke="#737373" stroke-width="1.5" stroke-linecap="round" stroke-linejoin="round"/>
<path d="M11.375 5C14.2034 5 16.6176 5 17.4963 5.7988C18.375 6.5976 18.375 7.4287 18.375 10L16.375 9" stroke="#737373" stroke-width="1.5" stroke-linecap="round" stroke-linejoin="round"/>
<path d="M12.375 20C9.54657 20 7.13236 20 6.25368 19.2012C5.375 18.4024 5.375 17.5713 5.375 15L7.375 16" stroke="#737373" stroke-width="1.5" stroke-linecap="round" stroke-linejoin="round"/>
<path d="M5.875 3.25C4.49429 3.25 3.375 4.08947 3.375 5.125C3.375 6.16053 4.49429 7 5.875 7C7.25571 7 8.375 7.83947 8.375 8.875C8.375 9.91053 7.25571 10.75 5.875 10.75M5.875 3.25C6.96352 3.25 7.88955 3.77175 8.23275 4.5M5.875 3.25V2M5.875 10.75C4.78648 10.75 3.86045 10.2282 3.51725 9.5M5.875 10.75V12" stroke="#737373" stroke-width="1.5" stroke-linecap="round"/>
</svg>
