<svg width="32" height="24" viewBox="0 0 32 24" fill="none" xmlns="http://www.w3.org/2000/svg">
<mask id="mask0_7118_194174" style="mask-type:alpha" maskUnits="userSpaceOnUse" x="0" y="0" width="32" height="24">
<rect width="32" height="24" fill="white"/>
</mask>
<g mask="url(#mask0_7118_194174)">
<path fill-rule="evenodd" clip-rule="evenodd" d="M22 0H32V24H22V0Z" fill="#67BD38"/>
<path fill-rule="evenodd" clip-rule="evenodd" d="M10 0H22V24H10V0Z" fill="#D51700"/>
<path fill-rule="evenodd" clip-rule="evenodd" d="M0 0H10V24H0V0Z" fill="#272727"/>
<path d="M12.8337 8.19336C12.2569 9.16428 11.8709 10.0546 11.6707 10.8633C11.7547 10.941 11.8081 11.0091 11.8621 11.1025C12.0185 11.3734 12.15 11.6364 12.2566 11.8916L11.7966 12.0879C11.7251 11.9167 11.6376 11.7422 11.5408 11.5615C11.4947 11.9542 11.4985 12.3252 11.5515 12.6748C11.6351 12.6835 11.7056 12.6989 11.7869 12.7285C12.0808 12.8355 12.3508 12.9522 12.5964 13.0791L12.3699 13.5254C12.1609 13.4174 11.9313 13.3172 11.6814 13.2236C11.6828 13.228 11.6839 13.2329 11.6853 13.2373C11.8993 13.8839 12.2275 14.4781 12.6697 15.0215C12.7378 15.007 12.8014 15 12.8757 15C13.1885 15 13.4823 15.0175 13.7566 15.0527L13.696 15.5488C13.5102 15.5249 13.3134 15.5123 13.1062 15.5059C13.5023 15.9017 13.967 16.2671 14.5007 16.6016L14.2898 16.957C13.6265 16.5414 13.0625 16.0774 12.5974 15.5664C12.5366 15.5902 12.4624 15.6218 12.3679 15.6631C12.356 15.6683 12.3435 15.6717 12.3318 15.6768C12.738 16.1029 13.2183 16.4948 13.7732 16.8525L13.5574 17.2061C12.9168 16.7931 12.3694 16.3333 11.9138 15.8291C11.696 15.8852 11.5124 15.8842 11.2976 15.8213L11.4314 15.3398C11.4634 15.3492 11.4947 15.3559 11.5261 15.3604C11.1033 14.7975 10.7847 14.1839 10.571 13.5195C10.5333 13.4023 10.5023 13.2826 10.4753 13.1611C10.309 13.1296 10.1687 13.068 10.0232 12.9609L10.3132 12.5547C10.3381 12.573 10.3636 12.5884 10.3894 12.6025C10.3376 11.99 10.4091 11.3289 10.6033 10.6191C10.4819 10.4793 10.4068 10.3349 10.3611 10.1465L10.7878 10.0352C11.0167 9.38742 11.3391 8.70142 11.7566 7.97852L12.1052 8.19141C11.6502 8.9792 11.3122 9.71503 11.0916 10.3994C11.1535 10.4558 11.2279 10.5178 11.321 10.5869C11.5426 9.7811 11.9328 8.91104 12.488 7.97656L12.8337 8.19336ZM11.0837 13.1777C11.0179 13.1819 10.9556 13.181 10.8972 13.1826C10.915 13.2521 10.934 13.3209 10.9558 13.3887C11.1769 14.0761 11.5191 14.7064 11.9832 15.2803C12.0417 15.2582 12.1064 15.2332 12.1775 15.2021C12.207 15.1893 12.235 15.1774 12.2615 15.166C11.8367 14.6173 11.516 14.0194 11.3015 13.3711C11.2795 13.3045 11.2603 13.2369 11.2419 13.1689C11.1959 13.1711 11.1436 13.174 11.0837 13.1777ZM10.9451 10.9238C10.7901 11.5606 10.7449 12.1485 10.8074 12.6885C10.8814 12.689 10.9657 12.6868 11.0623 12.6807C11.0906 12.6789 11.1176 12.6773 11.1433 12.6758C11.0772 12.1895 11.0962 11.6714 11.2 11.1201C11.1546 11.0848 11.1005 11.0432 11.0339 10.9941C11.0024 10.9709 10.974 10.946 10.9451 10.9238Z" fill="#F7FCFF"/>
<path d="M19.1531 8.19336C19.7299 9.16428 20.1159 10.0546 20.3162 10.8633C20.2322 10.941 20.1787 11.0091 20.1248 11.1025C19.9684 11.3734 19.8368 11.6364 19.7302 11.8916L20.1902 12.0879C20.2617 11.9167 20.3493 11.7422 20.446 11.5615C20.4922 11.9542 20.4883 12.3252 20.4353 12.6748C20.3517 12.6835 20.2812 12.6989 20.2 12.7285C19.9061 12.8355 19.636 12.9522 19.3904 13.0791L19.6169 13.5254C19.8259 13.4174 20.0555 13.3172 20.3054 13.2236C20.304 13.228 20.303 13.2329 20.3015 13.2373C20.0875 13.8839 19.7593 14.4781 19.3171 15.0215C19.249 15.007 19.1854 15 19.1111 15C18.7983 15 18.5045 15.0175 18.2302 15.0527L18.2908 15.5488C18.4766 15.5249 18.6734 15.5123 18.8806 15.5059C18.4846 15.9017 18.0198 16.2671 17.4861 16.6016L17.697 16.957C18.3603 16.5414 18.9243 16.0774 19.3894 15.5664C19.4502 15.5902 19.5244 15.6218 19.6189 15.6631C19.6308 15.6683 19.6434 15.6717 19.655 15.6768C19.2488 16.1029 18.7685 16.4948 18.2136 16.8525L18.4294 17.2061C19.07 16.7931 19.6175 16.3333 20.073 15.8291C20.2908 15.8852 20.4745 15.8842 20.6892 15.8213L20.5554 15.3398C20.5234 15.3492 20.4921 15.3559 20.4607 15.3604C20.8835 14.7975 21.2021 14.1839 21.4158 13.5195C21.4535 13.4023 21.4846 13.2826 21.5115 13.1611C21.6778 13.1296 21.8182 13.068 21.9636 12.9609L21.6736 12.5547C21.6487 12.573 21.6232 12.5884 21.5974 12.6025C21.6492 11.99 21.5777 11.3289 21.3835 10.6191C21.5049 10.4793 21.58 10.3349 21.6257 10.1465L21.199 10.0352C20.9701 9.38742 20.6477 8.70142 20.2302 7.97852L19.8816 8.19141C20.3366 8.9792 20.6746 9.71503 20.8953 10.3994C20.8333 10.4558 20.7589 10.5178 20.6658 10.5869C20.4442 9.7811 20.054 8.91104 19.4988 7.97656L19.1531 8.19336ZM20.9031 13.1777C20.9689 13.1819 21.0312 13.181 21.0896 13.1826C21.0718 13.2521 21.0528 13.3209 21.031 13.3887C20.8099 14.0761 20.4677 14.7064 20.0037 15.2803C19.9451 15.2582 19.8804 15.2332 19.8093 15.2021C19.7799 15.1893 19.7518 15.1774 19.7253 15.166C20.1501 14.6173 20.4708 14.0194 20.6853 13.3711C20.7073 13.3045 20.7265 13.2369 20.7449 13.1689C20.791 13.1711 20.8432 13.174 20.9031 13.1777ZM21.0417 10.9238C21.1967 11.5606 21.2419 12.1485 21.1794 12.6885C21.1054 12.689 21.0212 12.6868 20.9246 12.6807C20.8962 12.6789 20.8693 12.6773 20.8435 12.6758C20.9096 12.1895 20.8906 11.6714 20.7869 11.1201C20.8322 11.0848 20.8863 11.0432 20.9529 10.9941C20.9844 10.9709 21.0128 10.946 21.0417 10.9238Z" fill="#F7FCFF"/>
<path fill-rule="evenodd" clip-rule="evenodd" d="M14.253 16.2637L13.1367 17.3683C13.1367 17.3683 14.0994 17.9578 15.9137 17.9578C17.728 17.9578 18.7844 17.3683 18.7844 17.3683L17.9358 16.2637C17.9358 16.2637 16.7795 16.7118 15.9606 16.7118C15.1416 16.7118 14.253 16.2637 14.253 16.2637Z" fill="#F7FCFF"/>
<path d="M14.2764 16.9688C14.2764 16.9688 15.2215 17.1918 15.946 17.1918C16.6705 17.1918 17.6156 16.9688 17.6156 16.9688" stroke="#C00001" stroke-width="0.5"/>
<path d="M14.7236 10.4521H14.7754L15.04 10.249H16.8994L17.2129 10.4521H17.3701V8.86719H17.8564V10.4521H18.0273V10.7227H17.8564V13.5957C17.8564 13.7645 18.0368 14.0547 18.4141 14.4316L18.8438 14.8604H12.8662L13.8594 14.3838C14.0462 14.2941 14.1796 14.0363 14.2373 13.5801V10.7227H13.8105V10.4521H14.2373V8.86719H14.7236V10.4521ZM14.7236 13.6113C14.6864 13.9176 14.6212 14.1633 14.5234 14.3604H17.6934C17.4795 14.0788 17.3701 13.8274 17.3701 13.5957V10.7227H14.7236V13.6113ZM17.1348 14.083H15.0273V11.999H16.0811L17.1348 14.083ZM16 8.66602C16.4926 8.66603 16.8916 9.02079 16.8916 9.45801C16.8914 9.89508 16.4924 10.249 16 10.249C15.5075 10.249 15.1086 9.89508 15.1084 9.45801C15.1084 9.02078 15.5074 8.66602 16 8.66602Z" fill="#F7FCFF"/>
<path d="M17.0681 6.0712C17.0893 6.07617 17.106 6.08382 17.1218 6.09366C17.1684 6.12259 17.2189 6.18059 17.2576 6.24991C17.3357 6.34717 17.38 6.46804 17.4021 6.61124C17.4087 6.65417 17.4127 6.68967 17.4158 6.73526C17.435 6.68158 17.4516 6.61888 17.4646 6.54971C17.4695 6.52349 17.4726 6.50444 17.4783 6.46768C17.4808 6.45135 17.4818 6.44396 17.4832 6.43643C17.4845 6.42903 17.4848 6.42887 17.4871 6.41885C17.4921 6.39833 17.4971 6.38411 17.5115 6.36221C17.5245 6.34323 17.5246 6.34309 17.5564 6.31632C17.607 6.28866 17.607 6.2888 17.6824 6.29288C17.7819 6.35192 17.7818 6.35198 17.7947 6.38858C17.8028 6.40762 17.806 6.42043 17.8083 6.43741C17.8098 6.44782 17.8104 6.45929 17.8113 6.4755C17.8119 6.48702 17.8132 6.50129 17.8142 6.52335C17.8146 6.53243 17.8165 6.57911 17.8171 6.59366C17.8184 6.62164 17.8183 6.65026 17.8181 6.6796C17.8176 6.74405 17.8151 6.80381 17.8083 6.87979C17.8903 6.80011 18.0137 6.82004 18.1531 6.89639C18.2909 6.97201 18.3767 7.08096 18.4138 7.21378C18.4245 7.25203 18.4303 7.28694 18.4333 7.32413C18.4854 7.26632 18.5364 7.17216 18.5818 7.04874C18.6263 6.9276 18.7086 6.60739 18.7039 6.621C18.7115 6.59833 18.7193 6.5818 18.7341 6.56143C18.7615 6.52404 18.7991 6.49551 18.8601 6.49307C18.9337 6.49024 18.9822 6.53014 19.0095 6.57999C19.0304 6.61811 19.033 6.63952 19.0359 6.70108C19.0384 6.75478 19.0388 6.83503 19.0388 7.04385C19.0389 7.45632 19.0997 7.75604 19.1785 7.87979H19.3718C19.3716 8.20666 19.092 8.3521 18.907 8.06143C18.8266 7.93483 18.7672 7.731 18.7371 7.46768C18.6815 7.54909 18.618 7.61315 18.5437 7.65811C18.387 7.75283 18.3023 7.7822 18.2019 7.71768C18.1381 7.67648 18.1139 7.61673 18.1082 7.54776C18.1058 7.51983 18.1062 7.50487 18.1091 7.44815C18.1128 7.3775 18.1121 7.34088 18.1023 7.30557C18.0973 7.28775 18.0893 7.27189 18.0789 7.25675C18.091 7.34848 18.0918 7.41384 18.073 7.48038C18.0377 7.60533 17.9368 7.6815 17.8005 7.68155C17.612 7.68155 17.4915 7.57058 17.4597 7.39053C17.4496 7.3329 17.4469 7.28505 17.4509 7.20987C17.3346 7.27549 17.2145 7.26837 17.1433 7.13858C17.125 7.10508 17.1154 7.07582 17.1091 7.03409C17.0626 7.0829 17.0078 7.13085 16.946 7.17764C16.8149 7.277 16.7179 7.34153 16.6453 7.37686C16.5183 7.43853 16.4027 7.44494 16.3328 7.31436C16.2914 7.23697 16.3008 7.16958 16.3357 7.06436C16.3449 7.0365 16.3566 7.00631 16.3718 6.96768C16.3799 6.94726 16.4087 6.87603 16.4119 6.86807C16.4228 6.84081 16.4313 6.81796 16.4392 6.79678C16.474 6.70419 16.4908 6.63871 16.491 6.60147C16.491 6.54671 16.4911 6.50847 16.49 6.4794C16.428 6.52739 16.3456 6.60529 16.2429 6.71573C15.8884 7.09725 15.518 7.09729 15.2156 6.85928C15.1419 6.80132 15.0884 6.74322 15.0574 6.7001L15.0515 6.69132C15.0418 6.67581 15.0199 6.6472 14.991 6.61905C14.9142 6.54441 14.8763 6.53941 14.8113 6.621C14.7969 6.63902 14.7822 6.66076 14.7673 6.68643C14.6001 6.97564 14.4659 7.14008 14.3074 7.20987C14.0921 7.3046 13.8894 7.20164 13.7087 6.93936C13.6175 6.80711 13.4962 6.77594 13.4324 6.82901C13.3443 6.90239 13.3391 7.11698 13.4958 7.44034C13.6692 7.79803 13.7014 8.04389 13.5076 8.17276C13.3473 8.27885 13.1034 8.21859 12.7302 8.02921L12.8738 7.73038C13.0241 7.80667 13.1457 7.8557 13.2351 7.87784C13.2696 7.88637 13.2952 7.89001 13.3113 7.89151C13.311 7.8881 13.3108 7.88382 13.3103 7.87979C13.3015 7.81473 13.2664 7.71583 13.2048 7.58878C12.9882 7.14153 12.9993 6.76145 13.2292 6.57022C13.4524 6.38493 13.7821 6.46936 13.9734 6.74698C14.0756 6.89529 14.1319 6.92399 14.1794 6.90323C14.2536 6.8706 14.3549 6.74573 14.488 6.51553C14.5109 6.47601 14.5353 6.44045 14.5603 6.40909C14.7656 6.1518 15.016 6.18465 15.2136 6.37686C15.2614 6.42336 15.2972 6.46937 15.3201 6.50479C15.3235 6.50916 15.3303 6.51694 15.3396 6.52725C15.3603 6.55015 15.3847 6.57319 15.4119 6.59464C15.5907 6.73539 15.7764 6.73605 16.0085 6.48624C16.3118 6.15995 16.4887 6.03842 16.658 6.12198C16.7511 6.16796 16.7894 6.25393 16.8054 6.36807C16.8138 6.42807 16.8162 6.47901 16.8162 6.60147C16.8161 6.69137 16.7904 6.78794 16.7419 6.9169C16.7454 6.91567 16.7494 6.91231 16.7537 6.90909C16.9977 6.72422 17.0446 6.57301 16.989 6.44132C16.9456 6.39925 16.9155 6.36581 16.8972 6.33682C16.8892 6.32408 16.8822 6.31121 16.8767 6.29581C16.861 6.25155 16.8574 6.20518 16.8884 6.1503C16.9322 6.07304 17.0054 6.05666 17.0681 6.0712ZM19.0105 6.73428L19.0115 6.73233V6.73038C19.011 6.73165 19.0109 6.73303 19.0105 6.73428ZM18.7117 6.70694V6.7001L18.7107 6.69815C18.711 6.70039 18.7114 6.70332 18.7117 6.70694ZM16.4812 6.39444L16.4802 6.38858L16.4792 6.38663C16.4799 6.38814 16.4802 6.39104 16.4812 6.39444Z" fill="#F7FCFF"/>
<path d="M14.5264 12.9189L14.3271 13.0625L13.4375 11.7559C13.3358 11.8009 13.2148 11.8921 13.1367 12.0732C12.981 12.4351 12.9209 13.0723 12.9209 13.0723L12.3486 12.7041C12.353 12.6939 12.54 12.2511 12.54 11.7119C12.54 11.3362 12.823 11.1765 12.999 11.1133L12.7939 10.8115L12.9932 10.668L14.5264 12.9189Z" fill="#F7FCFF"/>
<path d="M17.5381 12.9189L17.7373 13.0625L18.627 11.7559C18.7287 11.8009 18.8496 11.8921 18.9277 12.0732C19.0835 12.4351 19.1436 13.0723 19.1436 13.0723L19.7158 12.7041C19.7115 12.6939 19.5244 12.2511 19.5244 11.7119C19.5244 11.3362 19.2415 11.1765 19.0654 11.1133L19.2705 10.8115L19.0713 10.668L17.5381 12.9189Z" fill="#F7FCFF"/>
</g>
</svg>
