<svg width="25" height="24" viewBox="0 0 25 24" fill="none" xmlns="http://www.w3.org/2000/svg">
<path d="M9.875 22L9.87692 17.9976C9.87736 17.067 9.87758 16.6017 10.0296 16.2347C10.2327 15.7443 10.6225 15.3547 11.1129 15.1519C11.4801 15 11.9454 15 12.876 15C13.8069 15 14.2724 15 14.6397 15.152C15.1303 15.355 15.52 15.7447 15.723 16.2353C15.875 16.6026 15.875 17.0681 15.875 17.999V22" stroke="white" stroke-width="1.5"/>
<path d="M7.96348 4.76243L6.96347 5.54298C5.44681 6.72681 4.68848 7.31873 4.28174 8.15333C3.875 8.98792 3.875 9.95205 3.875 11.8803V13.9715C3.875 17.7562 3.875 19.6485 5.04657 20.8243C6.21815 22 8.10376 22 11.875 22H13.875C17.6462 22 19.5319 22 20.7034 20.8243C21.875 19.6485 21.875 17.7562 21.875 13.9715V11.8803C21.875 9.95205 21.875 8.98792 21.4683 8.15333C21.0615 7.31873 20.3032 6.72681 18.7865 5.54298L17.7865 4.76243C15.4271 2.92081 14.2474 2 12.875 2C11.5026 2 10.3229 2.92081 7.96348 4.76243Z" stroke="white" stroke-width="1.5" stroke-linejoin="round"/>
</svg>
