<svg width="25" height="24" viewBox="0 0 25 24" fill="none" xmlns="http://www.w3.org/2000/svg">
<path d="M20.8493 2C19.7359 2 18.8333 4.68629 18.8333 8H20.8493C21.8209 8 22.3067 8 22.6074 7.66455C22.9082 7.32909 22.8558 6.88733 22.7511 6.00381C22.4747 3.67143 21.7276 2 20.8493 2Z" stroke="white" stroke-width="1.5"/>
<path d="M18.8333 8.05426V18.6458C18.8333 20.1575 18.8333 20.9133 18.3713 21.2108C17.6164 21.6971 16.4494 20.6774 15.8624 20.3073C15.3774 20.0014 15.135 19.8485 14.8658 19.8397C14.575 19.8301 14.3282 19.9768 13.8042 20.3073L11.8933 21.5124C11.3778 21.8374 11.1201 22 10.8333 22C10.5465 22 10.2887 21.8374 9.77325 21.5124L7.86238 20.3073C7.3774 20.0014 7.13491 19.8485 6.86578 19.8397C6.57497 19.8301 6.32818 19.9768 5.80412 20.3073C5.2172 20.6774 4.05012 21.6971 3.2952 21.2108C2.83325 20.9133 2.83325 20.1575 2.83325 18.6458V8.05426C2.83325 5.20025 2.83325 3.77325 3.71193 2.88663C4.59061 2 6.00482 2 8.83325 2H20.8333" stroke="white" stroke-width="1.5" stroke-linecap="round" stroke-linejoin="round"/>
<path d="M6.83325 6H14.8333" stroke="#F2C564" stroke-width="1.5" stroke-linecap="round" stroke-linejoin="round"/>
<path d="M8.83325 10H6.83325" stroke="#F2C564" stroke-width="1.5" stroke-linecap="round" stroke-linejoin="round"/>
<path d="M12.042 15.8333V11.1667M13.5003 11.1667V10M13.5003 17V15.8333M12.042 13.5H14.9587M14.9587 13.5C15.4419 13.5 15.8337 13.8918 15.8337 14.375V14.9583C15.8337 15.4416 15.4419 15.8333 14.9587 15.8333H11.167M14.9587 13.5C15.4419 13.5 15.8337 13.1082 15.8337 12.625V12.0417C15.8337 11.5584 15.4419 11.1667 14.9587 11.1667H11.167" stroke="#F2C564" stroke-width="1.16667" stroke-linecap="round" stroke-linejoin="round"/>
</svg>
