<svg width="32" height="32" viewBox="0 0 32 32" fill="none" xmlns="http://www.w3.org/2000/svg">
<path d="M3.33325 10.9156C3.472 8.11599 3.88708 6.37048 5.12877 5.12877C6.37048 3.88708 8.11599 3.472 10.9156 3.33325M28.6666 10.9156C28.5278 8.11599 28.1127 6.37048 26.8711 5.12877C25.6294 3.88708 23.8838 3.472 21.0842 3.33325M21.0842 28.6666C23.8838 28.5278 25.6294 28.1127 26.8711 26.8711C28.1127 25.6294 28.5278 23.8838 28.6666 21.0842M10.9156 28.6666C8.11599 28.5278 6.37048 28.1127 5.12877 26.8711C3.88708 25.6294 3.472 23.8838 3.33325 21.0842" stroke="#242424" stroke-width="2" stroke-linecap="round" stroke-linejoin="round"/>
<path d="M3.33301 15.9998H28.6664" stroke="#242424" stroke-width="2" stroke-linecap="round"/>
</svg>
