<svg width="25" height="24" viewBox="0 0 25 24" fill="none" xmlns="http://www.w3.org/2000/svg">
<path d="M16.625 19.8571V21M16.625 19.8571C15.6128 19.8571 14.7211 19.3521 14.198 18.5852M16.625 19.8571C17.6372 19.8571 18.5289 19.3521 19.052 18.5852M14.198 18.5852L13.1254 19.2857M14.198 18.5852C13.8887 18.1316 13.7083 17.5864 13.7083 17C13.7083 16.4136 13.8886 15.8685 14.1979 15.415M19.052 18.5852L20.1246 19.2857M19.052 18.5852C19.3613 18.1316 19.5417 17.5864 19.5417 17C19.5417 16.4136 19.3614 15.8685 19.0521 15.415M16.625 14.1429C17.6373 14.1429 18.5291 14.648 19.0521 15.415M16.625 14.1429C15.6127 14.1429 14.7209 14.648 14.1979 15.415M16.625 14.1429V13M19.0521 15.415L20.125 14.7143M14.1979 15.415L13.125 14.7143" stroke="#737373" stroke-width="1.5" stroke-linecap="round"/>
<path d="M4.125 3H20.125" stroke="#737373" stroke-width="1.5" stroke-linecap="round"/>
<path d="M4.125 9H20.125" stroke="#737373" stroke-width="1.5" stroke-linecap="round"/>
<path d="M4.125 15H9.125" stroke="#737373" stroke-width="1.5" stroke-linecap="round"/>
</svg>
