<svg width="50" height="17" viewBox="0 0 50 17" fill="none" xmlns="http://www.w3.org/2000/svg">
<path d="M18.8111 0.777586L12.3239 16.2547H8.09254L4.90106 3.90591C4.7072 3.14513 4.53828 2.86607 3.94933 2.54737C2.98733 2.02451 1.3982 1.53396 0 1.22554L0.0939988 0.776116H6.90729C7.77529 0.776116 8.55518 1.35331 8.75346 2.3535L10.4395 11.3126L14.6062 0.779056L18.8111 0.777586ZM35.3927 11.2053C35.4103 7.12089 29.7456 6.89618 29.7837 5.07059C29.797 4.51542 30.3242 3.92647 31.4816 3.7752C32.8358 3.646 34.1998 3.885 35.4294 4.46696L36.1329 1.18588C34.9349 0.735804 33.666 0.503526 32.3863 0.5C28.4296 0.5 25.645 2.60318 25.6215 5.61548C25.595 7.84349 27.6101 9.08601 29.1272 9.8277C30.687 10.5856 31.2099 11.0717 31.204 11.7502C31.1922 12.7886 29.96 13.2468 28.8071 13.2645C26.7949 13.2968 25.6259 12.721 24.6947 12.2878L23.9692 15.679C24.9033 16.1079 26.6304 16.4824 28.4208 16.5C32.6271 16.5 35.378 14.4233 35.3912 11.2053H35.3927ZM45.841 16.2591H49.5436L46.3125 0.781988H42.8963C42.531 0.778572 42.1732 0.884989 41.8691 1.08743C41.5651 1.28986 41.3289 1.57899 41.1911 1.9173L35.1841 16.2591H39.3876L40.2233 13.9459H45.3637L45.841 16.2591ZM41.3732 10.775L43.4808 4.96338L44.694 10.775H41.3732ZM24.5302 0.787868L21.2198 16.265H17.2161L20.5339 0.777586L24.5302 0.787868Z" fill="white"/>
</svg>
