<svg width="26" height="26" viewBox="0 0 26 26" fill="none" xmlns="http://www.w3.org/2000/svg">
<g clip-path="url(#clip0_6490_1391)">
<rect width="24" height="24" transform="translate(1 1)" fill="url(#paint0_linear_6490_1391)"/>
<path d="M11.7356 11.1001L13.5389 18.3174H15.5914L19.0039 11.1001H17.0449L14.7688 16.5198L13.8765 11.1001H11.7356ZM7.00391 11.1001L8.73598 18.3141H10.8753L11.4119 17.3586L11.611 16.951L11.7061 16.6358L11.7511 16.3932L11.7978 15.9832V15.276L11.7708 14.5965L11.6078 13.3787L10.0076 16.5509L9.17105 11.1009L7.00391 11.1001ZM13.2317 7.71322C13.0866 7.71386 12.9429 7.73919 12.8064 7.78836C12.6632 7.83996 12.5299 7.91627 12.4132 8.01377C12.2871 8.12021 12.1818 8.24902 12.1026 8.39354C12.028 8.53026 11.9804 8.67991 11.9625 8.83456C11.9524 8.9101 11.9506 8.98647 11.9568 9.06243C11.9625 9.13858 11.9764 9.21392 11.9986 9.28702C12.0408 9.43613 12.1139 9.57541 12.2132 9.69456C12.2673 9.75878 12.3291 9.81686 12.396 9.8677C12.4635 9.91558 12.535 9.95707 12.6098 9.99266C12.6853 10.0243 12.7634 10.0491 12.8433 10.067C12.924 10.0832 13.006 10.091 13.0883 10.0907C13.2333 10.091 13.3771 10.0662 13.5135 10.0172C13.814 9.90687 14.0642 9.69185 14.2182 9.41198C14.2925 9.27537 14.3403 9.12608 14.3591 8.97177C14.3678 8.89558 14.3707 8.81885 14.3665 8.74228C14.3593 8.66714 14.3446 8.59272 14.3239 8.52013C14.2808 8.36991 14.2067 8.23062 14.1059 8.11096C14.0522 8.0466 13.9913 7.98872 13.924 7.93863C13.8576 7.89032 13.7862 7.84925 13.711 7.81612C13.6372 7.77985 13.5586 7.75463 13.4775 7.74099C13.397 7.72227 13.3143 7.71259 13.2317 7.7124V7.71322Z" fill="url(#paint1_linear_6490_1391)"/>
</g>
<rect x="0.5" y="0.5" width="25" height="25" rx="12.5" stroke="#F2C564"/>
<defs>
<linearGradient id="paint0_linear_6490_1391" x1="12" y1="0" x2="12" y2="24" gradientUnits="userSpaceOnUse">
<stop stop-color="#313131"/>
<stop offset="1" stop-color="#141414"/>
</linearGradient>
<linearGradient id="paint1_linear_6490_1391" x1="19.0039" y1="17.7806" x2="-5.88959" y2="-8.17354" gradientUnits="userSpaceOnUse">
<stop stop-color="#F2C564"/>
<stop offset="1" stop-color="#242424"/>
</linearGradient>
<clipPath id="clip0_6490_1391">
<rect x="1" y="1" width="24" height="24" rx="12" fill="white"/>
</clipPath>
</defs>
</svg>
