<svg width="16" height="16" viewBox="0 0 16 16" fill="none" xmlns="http://www.w3.org/2000/svg">
<path d="M9.95087 1.94069L5.51568 4.06968C5.17434 4.23353 4.80962 4.27458 4.43783 4.19129C4.19451 4.13678 4.07284 4.10953 3.97487 4.09834C2.75829 3.95941 2 4.92228 2 6.02951V6.63715C2 7.7444 2.75829 8.70727 3.97487 8.56833C4.07284 8.55713 4.19452 8.52987 4.43783 8.4754C4.80962 8.39207 5.17434 8.43313 5.51568 8.597L9.95087 10.726C10.9689 11.2147 11.478 11.4591 12.0456 11.2686C12.6131 11.0781 12.8079 10.6694 13.1976 9.852C14.2675 7.60747 14.2675 5.05923 13.1976 2.81464C12.8079 1.99724 12.6131 1.58854 12.0456 1.39807C11.478 1.2076 10.9689 1.45196 9.95087 1.94069Z" stroke="white" stroke-width="1.5" stroke-linecap="round" stroke-linejoin="round"/>
<path d="M7.63873 13.8473L6.64449 14.6667C4.40343 12.8893 4.67722 12.0417 4.67722 8.66667H5.43311C5.73985 10.5739 6.46341 11.4773 7.4618 12.1313C8.0768 12.5341 8.2036 13.3817 7.63873 13.8473Z" stroke="white" stroke-width="1.5" stroke-linecap="round" stroke-linejoin="round"/>
<path d="M5 8.33333V4.33333" stroke="white" stroke-width="1.5" stroke-linecap="round" stroke-linejoin="round"/>
</svg>
