<svg width="16" height="16" viewBox="0 0 16 16" fill="none" xmlns="http://www.w3.org/2000/svg">
<path d="M9.3335 9.33398L11.0002 11.0007" stroke="#787878" stroke-linejoin="round"/>
<path d="M10.9568 12.3495C10.5717 11.9643 10.5717 11.3399 10.9568 10.9549C11.3419 10.5697 11.9663 10.5697 12.3514 10.9549L14.3791 12.9825C14.7642 13.3677 14.7642 13.9921 14.3791 14.3771C13.994 14.7623 13.3696 14.7623 12.9845 14.3771L10.9568 12.3495Z" stroke="#787878" stroke-linecap="round"/>
<path d="M10.6678 5.9987C10.6678 3.42137 8.57847 1.33203 6.00114 1.33203C3.42381 1.33203 1.33447 3.42137 1.33447 5.9987C1.33447 8.57603 3.42381 10.6654 6.00114 10.6654C8.57847 10.6654 10.6678 8.57603 10.6678 5.9987Z" stroke="#787878" stroke-linejoin="round"/>
</svg>
