<svg width="18" height="18" viewBox="0 0 18 18" fill="none" xmlns="http://www.w3.org/2000/svg">
<circle cx="9" cy="9" r="9" fill="#3D3D3D"/>
<path d="M9 17C6.78667 17 4.9 16.22 3.34 14.66C1.78 13.1 1 11.2133 1 9C1 6.78667 1.78 4.9 3.34 3.34C4.9 1.78 6.78667 1 9 1C11.2133 1 13.1 1.78 14.66 3.34C16.22 4.9 17 6.78667 17 9C17 11.2133 16.22 13.1 14.66 14.66C13.1 16.22 11.2133 17 9 17ZM9 13.8C9.21333 13.8 9.4 13.72 9.56 13.56C9.72 13.4 9.8 13.2133 9.8 13C9.8 12.7867 9.72 12.6 9.56 12.44C9.4 12.28 9.21333 12.2 9 12.2C8.78667 12.2 8.6 12.28 8.44 12.44C8.28 12.6 8.2 12.7867 8.2 13C8.2 13.2133 8.28 13.4 8.44 13.56C8.6 13.72 8.78667 13.8 9 13.8ZM8.2 10.6H9.8V4.2H8.2V10.6Z" fill="#FF2729"/>
</svg>
