<svg width="25" height="24" viewBox="0 0 25 24" fill="none" xmlns="http://www.w3.org/2000/svg">
<path d="M15.625 15C15.625 15.8284 16.2966 16.5 17.125 16.5C17.9534 16.5 18.625 15.8284 18.625 15C18.625 14.1716 17.9534 13.5 17.125 13.5C16.2966 13.5 15.625 14.1716 15.625 15Z" stroke="#737373" stroke-width="1.5"/>
<path d="M3.625 12V6C5.7297 6.62133 10.2012 7.42671 15.6288 7.80281C18.5502 8.00525 20.0109 8.10646 20.8179 8.97688C21.625 9.8473 21.625 11.2497 21.625 14.0546V16.0683C21.625 18.9566 21.625 20.4008 20.6413 21.2998C19.6575 22.1987 18.3169 22.0677 15.6356 21.8058C14.9822 21.7419 14.3096 21.666 13.625 21.5762" stroke="#737373" stroke-width="1.5" stroke-linecap="round" stroke-linejoin="round"/>
<path d="M18.2508 8C18.6285 6.57673 18.9703 3.98822 17.952 2.70292C17.3066 1.88827 16.3473 1.96654 15.4068 2.04926C10.4629 2.48406 6.97044 3.36731 5.01801 3.96737C4.17848 4.2254 3.625 5.04522 3.625 5.96044" stroke="#737373" stroke-width="1.5" stroke-linejoin="round"/>
<path d="M11.625 18H7.625M7.625 18H3.625M7.625 18V22M7.625 18V14" stroke="#737373" stroke-width="1.5" stroke-linecap="round"/>
</svg>
