<svg width="25" height="24" viewBox="0 0 25 24" fill="none" xmlns="http://www.w3.org/2000/svg">
<path d="M11.1099 10.5589L12.613 16H14.3221L17.1667 10.5589H15.5326L13.6373 14.6466L12.8956 10.5589H11.1099ZM7.16675 10.5589L8.60803 15.9978H10.3897L10.8371 15.2761L11.0019 14.9721L11.0843 14.7395L11.1181 14.5567L11.1593 14.2475V13.7139L11.1255 13.1936L10.9937 12.2653L9.65789 14.6563L8.96072 10.5492L7.16675 10.5589ZM12.3583 8.0052C12.237 8.00433 12.1165 8.02399 12.0032 8.06317C11.8826 8.10067 11.7708 8.15814 11.6735 8.23263C11.5686 8.31227 11.4814 8.40911 11.4164 8.51802C11.3538 8.62173 11.3135 8.73522 11.2978 8.85247C11.2912 8.9088 11.2912 8.9656 11.2978 9.02193C11.3012 9.07946 11.3125 9.13638 11.3316 9.19138C11.3762 9.33869 11.4657 9.47178 11.59 9.57555C11.7142 9.67932 11.8682 9.74964 12.0345 9.77852C12.1902 9.80707 12.3512 9.80267 12.5048 9.76566C12.6583 9.72865 12.8003 9.66004 12.9195 9.56522C13.0249 9.48599 13.1122 9.38906 13.1766 9.27982C13.2401 9.17721 13.2804 9.06431 13.2953 8.9476C13.3116 8.83335 13.3021 8.7173 13.2673 8.60647C13.213 8.43237 13.0972 8.27896 12.9377 8.16945C12.8818 8.13361 12.8222 8.10274 12.7597 8.07729C12.6978 8.05176 12.6332 8.03209 12.5668 8.01858C12.4997 8.00681 12.4316 8.00059 12.3633 8L12.3583 8.0052Z" fill="#DDAD50"/>
<path d="M22.1667 12C22.1667 6.47715 17.6895 2 12.1667 2C6.6439 2 2.16675 6.47715 2.16675 12C2.16675 17.5228 6.6439 22 12.1667 22C17.6895 22 22.1667 17.5228 22.1667 12Z" stroke="white" stroke-width="1.5"/>
</svg>
